<?xml version="1.0" standalone="no"?>
<!DOCTYPE svg PUBLIC "-//W3C//DTD SVG 20010904//EN"
 "http://www.w3.org/TR/2001/REC-SVG-20010904/DTD/svg10.dtd">
<svg version="1.0" xmlns="http://www.w3.org/2000/svg"
 width="1000.000000pt" height="1000.000000pt" viewBox="0 0 1000.000000 1000.000000"
 preserveAspectRatio="xMidYMid meet">
<metadata>
Created by potrace 1.11, written by Peter Selinger 2001-2013
</metadata>
<g transform="translate(0.000000,1000.000000) scale(0.100000,-0.100000)"
fill="#000000" stroke="none">
<path d="M3211 8795 c0 -5 4 -30 10 -55 6 -25 12 -52 14 -60 2 -9 21 -92 43
-185 51 -211 113 -475 117 -495 8 -35 160 -678 244 -1030 16 -69 32 -136 35
-150 9 -44 14 -64 26 -110 7 -25 13 -52 15 -60 6 -32 15 -68 39 -170 14 -58
35 -145 46 -195 12 -49 35 -146 51 -215 17 -69 33 -136 35 -150 3 -14 10 -43
16 -65 5 -22 11 -47 13 -55 2 -8 11 -46 20 -85 9 -38 19 -79 21 -90 3 -11 7
-29 9 -40 3 -11 7 -29 9 -40 19 -85 19 -88 5 -82 -8 3 -57 24 -109 47 -106 47
-632 274 -755 327 -44 19 -93 40 -110 47 -16 8 -131 58 -255 111 -124 54 -290
126 -370 160 -80 35 -230 100 -335 145 -430 186 -431 186 -517 224 -64 28
-714 309 -778 336 -36 15 -202 87 -370 160 -168 73 -320 139 -338 147 -26 11
-32 11 -26 1 7 -11 257 -313 330 -398 12 -14 102 -122 200 -240 98 -118 186
-224 196 -235 9 -11 104 -123 209 -250 105 -126 208 -250 229 -275 20 -25 97
-117 170 -205 73 -88 147 -176 164 -196 17 -19 40 -46 51 -60 97 -118 161
-195 165 -199 3 -3 37 -43 75 -90 39 -47 80 -96 92 -110 11 -14 220 -263 463
-555 243 -291 459 -550 480 -575 21 -25 111 -133 200 -240 89 -107 171 -206
183 -220 12 -14 42 -50 67 -80 25 -30 49 -60 55 -66 15 -16 83 -97 175 -209
45 -55 101 -122 124 -149 22 -26 50 -60 61 -74 11 -14 47 -57 80 -96 33 -39
103 -123 155 -186 52 -63 101 -122 109 -131 9 -9 34 -38 56 -65 86 -104 290
-349 295 -354 3 -3 25 -30 50 -60 25 -30 47 -57 50 -60 3 -3 48 -57 100 -120
52 -63 105 -126 116 -140 12 -14 57 -68 100 -120 80 -97 109 -130 155 -184
l26 -30 13 25 c7 13 45 62 84 109 39 47 78 93 86 104 8 10 20 23 25 30 14 15
180 214 674 806 227 272 430 515 451 540 165 198 623 746 655 785 52 64 99
119 105 125 3 3 37 43 75 90 38 47 74 90 80 96 5 6 26 30 45 54 19 24 40 48
45 54 6 6 33 38 60 71 28 33 58 69 67 80 9 11 80 97 158 190 161 194 253 304
292 349 14 17 203 243 418 501 416 499 453 543 514 614 21 25 45 55 55 66 29
37 166 200 171 205 3 3 34 41 70 85 35 44 70 86 77 93 7 7 29 34 50 60 21 26
43 52 49 57 6 6 64 75 130 155 65 80 129 156 141 170 122 141 402 484 399 487
-2 3 -17 -2 -33 -10 -15 -8 -224 -99 -463 -202 -239 -103 -457 -198 -485 -210
-27 -12 -95 -41 -150 -65 -55 -23 -113 -48 -130 -55 -16 -8 -136 -59 -265
-115 -129 -56 -248 -107 -265 -115 -16 -7 -95 -41 -175 -76 -80 -34 -165 -71
-190 -82 -25 -11 -49 -21 -55 -23 -5 -1 -89 -37 -185 -79 -96 -42 -269 -117
-385 -167 -115 -49 -228 -98 -250 -108 -22 -10 -87 -38 -145 -63 -58 -25 -257
-111 -444 -191 -186 -81 -341 -144 -343 -142 -3 3 11 73 32 156 20 83 39 164
41 178 3 15 7 34 10 42 3 8 8 25 10 38 2 12 23 98 45 190 22 92 41 174 43 182
2 8 6 26 9 40 9 34 68 281 72 303 2 10 27 115 55 235 29 119 53 224 55 232 2
8 10 42 18 75 9 33 18 71 21 85 3 14 17 75 31 135 15 61 28 117 30 125 2 8 15
63 29 123 14 59 28 118 30 130 2 12 22 96 44 187 43 177 92 382 142 600 17 74
38 157 45 185 l14 49 -27 -29 c-25 -28 -138 -161 -238 -280 -23 -28 -156 -186
-295 -351 -284 -337 -549 -652 -849 -1009 -111 -132 -211 -251 -223 -265 -12
-14 -51 -60 -86 -102 -35 -43 -67 -78 -70 -78 -4 0 -45 46 -93 103 -170 201
-436 517 -578 687 -80 95 -150 178 -155 184 -6 6 -55 65 -110 131 -55 66 -102
122 -105 125 -4 3 -66 77 -139 165 -74 88 -145 173 -159 190 -27 30 -103 120
-287 341 -55 65 -110 131 -123 145 -12 14 -29 34 -37 45 -8 10 -14 15 -14 9z"/>
</g>
</svg>
