<?xml version="1.0" standalone="no"?>
<!DOCTYPE svg PUBLIC "-//W3C//DTD SVG 20010904//EN"
 "http://www.w3.org/TR/2001/REC-SVG-20010904/DTD/svg10.dtd">
<svg version="1.0" xmlns="http://www.w3.org/2000/svg"
 width="260.000000pt" height="260.000000pt" viewBox="0 0 260.000000 260.000000"
 preserveAspectRatio="xMidYMid meet">
<metadata>
Created by potrace 1.11, written by Peter Selinger 2001-2013
</metadata>
<g transform="translate(0.000000,260.000000) scale(0.100000,-0.100000)"
fill="#000000" stroke="none">
<path d="M634 2235 c8 -22 93 -267 166 -480 27 -77 74 -212 105 -300 74 -209
71 -200 53 -189 -19 11 -363 235 -509 332 -60 39 -112 72 -115 72 -3 0 -10 5
-17 11 -11 9 -262 173 -297 194 -12 7 -12 5 1 -11 9 -10 59 -71 110 -134 52
-63 130 -158 173 -210 43 -52 94 -113 111 -135 35 -42 180 -217 245 -295 20
-25 71 -85 112 -135 235 -285 413 -501 418 -505 3 -3 22 -26 43 -53 21 -26 43
-45 48 -42 5 4 6 -1 3 -9 -12 -30 22 -16 52 21 16 20 34 41 39 47 6 6 37 45
70 86 33 41 66 81 73 89 7 7 48 57 91 110 72 88 510 620 549 666 9 11 69 83
132 160 63 77 117 142 120 145 3 3 23 28 45 55 21 28 42 52 45 55 13 12 80 99
80 103 0 3 -12 -1 -28 -8 -32 -16 -77 -36 -432 -197 -325 -148 -414 -187 -417
-185 -1 1 23 74 54 162 163 474 202 589 199 592 -2 2 -174 -170 -382 -382
l-379 -385 -25 32 c-14 18 -36 49 -50 69 -34 49 -359 495 -433 594 -33 44 -57
71 -53 60z"/>
</g>
</svg>
