<?xml version="1.0" encoding="UTF-8" standalone="no"?>
<!DOCTYPE svg PUBLIC "-//W3C//DTD SVG 1.1//EN" "http://www.w3.org/Graphics/SVG/1.1/DTD/svg11.dtd">
<svg version="1.1" xmlns="http://www.w3.org/2000/svg" xmlns:xlink="http://www.w3.org/1999/xlink" preserveAspectRatio="xMidYMid meet" viewBox="4.370276551388542 83.7487392561049 630.530112427441 480.509084029269" width="1000" height="762.07"><defs><path d="M382.99 293.79L508.36 239.64L634.9 185L319.43 562.78L319.43 562.81L319.42 562.8L319.41 562.81L319.42 562.78L206.41 83.75L295.1 189.24L382.99 293.79Z" id="jXNBPrOJi"></path><path d="M319.67 564.25L319.65 564.24L319.65 564.26L319.64 564.23L4.37 186.28L130.87 240.98L256.23 295.2L344.17 190.71L432.92 85.25L319.66 564.22L319.67 564.25Z" id="c2OrJJQRwC"></path><path d="M383.68 293.49L320.22 561.84L319.43 562.78L319.43 562.81L319.42 562.8L319.41 562.81L319.42 562.78L256.28 295.15L320.24 219.14L382.99 293.79L383.68 293.49Z" id="c1tRfLurl"></path></defs><g><g><g><use xlink:href="#jXNBPrOJi" opacity="1" fill="#fc5d60" fill-opacity="1"></use></g><g><use xlink:href="#c2OrJJQRwC" opacity="1" fill="#1daeeb" fill-opacity="1"></use></g><g><use xlink:href="#c1tRfLurl" opacity="1" fill="#911bc4" fill-opacity="1"></use></g></g></g></svg>